<svg width="66" height="81" viewBox="0 0 66 81" fill="none" xmlns="http://www.w3.org/2000/svg">
<path d="M24.9535 24.6977C24.6047 23.3023 22.6512 22.814 21.4651 23.5814C20.2791 24.3488 19.7907 25.8837 19.8605 27.3488C19.9302 27.9768 20.0698 28.6047 20.4186 29.1628C21.186 30.4186 22.7907 30.8372 24.2558 30.8372C24.6744 36.6279 24.814 42.4186 24.814 48.1395C27.2558 50.3023 30.8837 50.9302 33.8837 49.7442C34.7209 49.3954 35.5581 48.907 36.1163 48.1395C37.3721 46.3256 35.9767 42.4884 38.0698 41.5116C38.9767 41.093 40.4419 41.4419 41.4186 41.1628C42.7442 40.814 44.0698 40.1163 44.907 38.9302C47.9767 34.6047 47.4186 28.3954 47.2791 23.4419C47.2093 21.0698 47.3488 18.6977 47.6279 16.3256C47.8372 14.3023 48.186 12.0698 47.0698 10.3256C45.6744 8.09303 42.6744 7.74419 40.093 7.60466C35.7674 7.39536 31.093 7.39536 27.6744 10.0465C25.4419 11.8605 24.1163 14.7209 24.2558 17.6512C24.2558 18.3488 24.3953 19.1163 23.8372 19.6047L24.9535 24.6977Z" fill="white"/>
<path d="M31.5116 13.3954C35.0698 15.8373 39.2558 18.2791 43.4419 17.2326C43.0232 21.2791 42.6744 25.3954 42.2558 29.4419C38.4186 29.3721 34.5116 29.2326 31.0232 30.7675C30.6744 30.907 30.3256 31.1163 30.186 31.4652C30.0465 31.7442 30.0465 32.0931 30.1163 32.4419C30.3256 35.0931 30.6744 37.7442 31.0232 40.3256C29.7674 40.3954 28.4418 40.2559 27.186 40.0466C27.9535 41.4419 29.2791 42.5582 30.8837 43.0466C31.2325 43.1861 31.5814 43.2559 31.7907 43.5349C31.9302 43.7442 31.9302 44.0931 31.8605 44.3721C31.6512 46.4652 31.4419 48.4884 31.2325 50.5814C33.186 51.4187 35.4884 49.9535 36.3256 48C37.1628 46.0466 36.9535 43.8838 36.7442 41.721C38.8372 41.5814 41 41.3024 42.8139 40.2559C45.0465 38.9303 45.2558 37.814 45.8139 35.3024C46.4419 32.7908 47.5581 28.814 47.4884 26.2326C47.3488 20.9303 47.2093 15.5582 47.0698 10.2559C46.7209 10.3256 46.3023 10.3256 45.9535 10.3954L31.5116 13.3954Z" fill="#E1E1FF"/>
<path d="M32.0698 41.2325C31.5814 41.093 31.5814 37.9535 31.8605 37.4651C32.7674 35.6511 35.1395 36.6977 36.7442 36.4884C37.6512 36.3488 38.6279 36.0698 39.3256 35.4418C39.9535 34.8837 40.3721 34.186 40.6512 33.4186C41.1395 32.2325 41.4884 30.9767 41.6279 29.7209C42.4651 30.2093 43.4419 30.4186 44.4186 30.3488C44.907 30.3488 45.3953 30.2093 45.814 30.4186C46.5116 30.7674 46.5814 31.6744 46.5116 32.4418C46.5116 33.8372 46.3721 35.2325 45.9535 36.5581C45.1163 39.0698 42.8139 41.093 40.1628 41.5814C38.1395 42 36.0465 41.5116 33.9535 41.6511C33.9535 41.7209 32.0698 41.2325 32.0698 41.2325Z" fill="#B7B7FF"/>
<path d="M0.18605 73.5349C1.72093 67.5349 3.53489 61.1163 8.20931 57.0698C13.093 52.814 20.2791 51.907 24.6744 47.2326C26 49.6047 28.7907 51.0698 31.5116 50.8605C34.3023 50.6512 36.4651 48.6977 37.6512 46.2558C39.4651 48.6977 42.5349 49.1163 45.3256 49.7442C48.3256 50.4419 50.9767 52.3256 53 54.6279C57.5349 59.7907 58.0233 66.5582 62.2791 71.9303C63.3954 73.3256 64.6512 74.6512 65.5581 76.1861C65.6977 76.4651 65.8372 76.814 65.7674 77.1628C65.6977 77.4419 65.4884 77.5814 65.2791 77.7907C62.7674 79.814 59.5581 80.8605 56.4186 81.8372C45.6047 85.1861 34.093 88.3256 23.1395 85.4651C18.3256 84.2093 13.8605 81.8372 9.46512 79.4651L0.18605 73.5349Z" fill="#7777FF"/>
<path d="M6.11628 80.5814C7.37209 77.3721 8.55814 74.0931 9.81395 70.8838C10.3721 69.3489 11 67.814 12.0465 66.5582C12.2558 66.3489 12.4651 66.0698 12.814 66.0698C13.2326 66.0698 13.5116 66.5582 13.6512 66.907C15.3256 70.814 16.1628 75.0698 16.5116 79.2559C16.6512 80.8605 16.6512 82.6745 15.4651 83.7907C14.4884 84.7675 13.0233 84.9768 11.6977 84.8373C10.3721 84.6977 8.97675 84.3489 7.65116 84.4884L6.11628 80.5814Z" fill="#6363EB"/>
<path d="M32.1395 50.5814C32.3488 52.7442 35.1395 53.5814 36.3256 55.3954C36.8837 56.3023 37.093 57.3489 37.2326 58.3954C38.2791 66.2093 37.6512 74.1628 38 82.1163C38.0698 83.6512 38.2093 85.2558 38.9767 86.5116C41.8372 87.2791 44.9767 86.7907 47.8372 85.9535C50.6977 85.0465 53.4186 83.7907 56.3488 83.0233C56.907 82.8837 57.5349 82.6744 57.7442 82.1163C57.8139 81.7675 57.6744 81.3489 57.5349 81C56.0698 77.3721 56 73.3954 55.5814 69.5582C55.1628 65.7209 54.3256 61.6047 51.7442 58.7442C49.6512 56.4419 46.6512 55.1163 43.9302 53.7209C41.1395 52.3256 38.2791 50.5116 36.9535 47.7209C36.3256 49.2558 34.7907 50.4419 33.1163 50.6512L32.1395 50.5814Z" fill="#6363EB"/>
<path d="M19.9302 17.3023C20.1395 18.4186 20.4186 19.5349 20.8372 20.5814C21.0465 21.0698 21.2558 21.6279 21.5349 22.1163C21.7442 22.4651 22.2326 23.0233 22.093 23.4419C20.8372 23.3721 19.9302 25.3954 19.7907 26.3721C19.5814 27.907 20.1395 29.5814 21.3954 30.4884C21.8837 30.8372 22.4419 31.0465 23 31.0465C23.9767 33.1395 24.4651 35.3721 24.4651 37.6047C24.4651 38.5814 24.3953 39.5582 24.3953 40.6047C24.3953 41.7907 24.4651 42.9768 24.4651 44.093C24.4651 44.7209 24.6744 45.4186 24.6047 46.1163C24.4651 46.9535 23.8372 47.3023 23.2093 47.721C23.1395 47.7907 23.0698 47.8605 23 47.9302C22.9302 48 22.8605 48.0698 22.8605 48.1396C22.7907 48.2093 22.7907 48.3489 22.8605 48.4884C22.9302 48.5582 23.0698 48.6279 23.2093 48.5582C23.2791 48.4884 23.3488 48.4884 23.4186 48.4186C23.4884 48.3489 23.5581 48.2791 23.6279 48.2093C23.7674 48.0698 23.907 48 23.9767 47.8605C24.186 47.7209 24.3256 47.5116 24.5349 47.3721C25.7907 49.8837 28.5116 51.5582 31.3721 51.4186C34.2326 51.2791 36.7442 49.3954 37.8605 46.7442C38.0698 46.3256 37.3023 45.9768 37.093 46.4651C37.0233 46.6047 36.9535 46.6744 36.8837 46.814C37.0233 45.9768 36.8837 45.0698 36.814 44.1628C36.814 43.4651 36.7442 42.8372 36.6744 42.1396C39.0465 42.1396 41.4884 41.8605 43.4419 40.4651C45.4651 39 46.4419 36.6977 46.8605 34.3256C47.1395 32.7209 47.2093 30.9768 47.2791 29.3023C47.3488 28.0465 47.3488 26.7907 47.4186 25.5349C47.4884 24.5582 47.4884 23.5814 47.5581 22.6047C47.5581 22.1861 47.4884 21.6279 47.5581 21.2791C47.6279 20.9302 47.9767 20.6512 48.1163 20.3721C48.3256 19.9535 48.3954 19.4651 48.4651 19.0465C48.6047 18.4884 48.6744 17.8605 48.7442 17.3023C48.814 16.7442 48.8837 16.1861 48.8837 15.5582C48.8837 15 48.9535 14.2326 48.5349 13.814C48.9535 13.5349 49.3721 13.1163 49.5814 12.6977C50 11.7209 50 10.5349 50 9.48839C50 9.00001 49.9302 8.51164 49.7209 8.02327C49.2326 5.79071 47.6279 3.83722 45.6744 2.58141C45.6047 2.51164 45.4651 2.44187 45.3954 2.37211C45.3954 2.37211 45.3256 2.37211 45.3256 2.30234C45.1163 2.16281 44.907 2.09304 44.6977 1.9535C44.6977 1.9535 44.6977 1.9535 44.6279 1.9535C41.0698 0.209316 36.6744 0.627921 32.9767 1.7442C29.5581 2.72094 26.1395 4.81397 24.8837 8.09304C24.814 8.16281 24.814 8.23257 24.7442 8.30234C24.6047 8.30234 24.4651 8.30234 24.2558 8.37211C22.093 8.51164 20 10.0465 19.2326 12.1395C18.6744 13.6744 19.0233 15.3489 19.5814 16.814C19.7907 16.9535 19.8605 17.093 19.9302 17.3023ZM46.7907 23.1628C46.6512 25.6047 46.5814 28.0465 46.4419 30.4884C45.186 30.2093 44.0698 29.5814 42.8837 29.2326C41.4186 28.814 39.8837 28.6744 38.4186 28.7442C36.9535 28.814 35.4884 29.1628 34.0233 29.5814C33.2558 29.7907 32.5581 30.0698 31.7907 30.2791C31.2326 30.4884 30.6047 30.6279 30.1163 30.9768C29.2093 29.7907 28.3023 28.6047 27.3954 27.4186C26.907 26.7907 26.4186 26.093 26 25.4651C25.8605 25.2558 25.7209 25.0465 25.5116 24.7675C25.5116 24.6977 25.5116 24.6977 25.5116 24.6279C25.6512 21.8372 25.5116 19.1163 25.1628 16.3954C26.0698 16.2558 26.9767 15.907 27.7442 15.2791C28.1628 14.9302 28.4419 14.5814 28.7209 14.093C28.8605 13.8837 28.9302 13.6744 29 13.3954C30.186 13.9535 31.6512 14.3023 32.7674 14.5814C34.9302 15.0698 37.093 15.2093 39.2558 15.2791C41.4186 15.3489 43.7907 15.5582 45.8837 14.9302C46.1628 14.8605 46.4419 14.7209 46.7209 14.5814C46.9302 17.5814 46.9302 20.4419 46.7907 23.1628ZM20.4884 26.4419C20.6279 25.3954 21.2558 24.4186 22.3023 24.0698C23.0698 23.8605 23.907 24 24.4651 24.5582C24.5349 24.6977 24.6047 24.8372 24.7442 24.9768C24.9535 25.3256 25.1628 25.6744 25.4419 26.0233C25.9302 26.7209 26.4186 27.4186 26.907 28.1163C27.8837 29.4419 28.8605 30.7675 29.9767 32.093C30.0465 32.1628 30.0465 32.1628 30.1163 32.2326C29.8372 33.8372 30.0465 36.4884 30.1163 36.907C30.186 37.7442 30.3954 38.5814 30.6047 39.4186C29.4884 38.3721 28.3721 37.3954 27.3954 36.2791C26.6279 35.3721 25.9302 34.3954 25.2326 33.4884C25.1628 33.3489 25.1628 33.2093 25.1628 33.0698C25.1628 32.093 25.2326 31.1163 25.2326 30.1395C25.2326 29.8605 24.8837 29.7209 24.6744 29.9302C24.3256 30.2791 23.907 30.4884 23.4186 30.4884C23.3488 30.4884 23.2791 30.4884 23.2093 30.4884C22.5814 30.4884 21.9535 30.2093 21.5349 29.7209C20.6279 28.814 20.2791 27.5582 20.4884 26.4419ZM36.0465 47.093C36.1163 47.3023 36.3256 47.4419 36.5349 47.3721C35.3488 49.1861 33.3954 50.4419 31.2326 50.5116C28.7907 50.5814 26.4186 49.2558 25.1628 47.2326C25.1628 47.2326 25.1628 47.2326 25.2326 47.1628C25.5116 46.7442 25.3721 46.1861 25.3721 45.6977C25.3721 45.1396 25.3023 44.5814 25.3023 44.093C25.3023 43.3256 25.2326 42.5582 25.2326 41.7907C25.2326 40.4651 25.2326 39.0698 25.2326 37.7442C25.2326 36.6279 25.2326 35.5814 25.2326 34.4651C26.6279 36.5582 28.3023 38.5116 30.1163 40.0465C29.907 39.907 29.6279 39.8372 29.4186 39.6977C28.9302 39.4186 28.5116 40.1163 29 40.3954C31.093 41.6512 33.7442 42 36.1163 42.0698H36.186C36.1163 42.7675 36.0465 43.3954 36.0465 44.093C35.9767 45.1395 35.7674 46.1861 36.0465 47.093ZM44.1395 38.7209C43.6512 39.2791 43.2326 39.7675 42.4651 40.0465C39.6047 41.2326 36.4651 41.093 33.3954 40.8837C32.907 40.814 32.2093 40.814 31.8605 40.3954C31.5116 40.0465 31.4419 39.4186 31.3721 39C31.1628 38.1628 30.9535 37.3954 30.814 36.5582C30.6744 35.7209 30.6047 34.814 30.6047 33.907C30.6047 33.6977 30.5349 32.1628 30.7442 31.5349C31.2326 31.4651 31.6512 31.2558 32.0698 31.1163C32.7674 30.907 33.4651 30.6977 34.1628 30.5582C35.6977 30.2093 37.2326 29.9302 38.7674 29.8605C40.3023 29.7907 41.7674 30 43.2326 30.4884C44.2791 30.8372 45.3256 31.3256 46.4419 31.5349C46.4419 31.6047 46.4419 31.6047 46.4419 31.6744C46.2326 34.1163 45.814 36.8372 44.1395 38.7209Z" fill="#372B7B"/>
<path d="M35.3488 24.7675L35.2093 24.8372H35.1395C35.0698 24.907 35 24.907 34.9302 24.9768C35.0698 24.907 34.9302 24.9768 34.9302 24.9768L34.7907 25.0465H34.7209L34.5814 25.1163H34.5116H34.3721H34.3023L34.1628 25.0465H34.093L33.9535 24.9768L33.814 24.907L33.7442 24.8372L33.6744 24.7675L33.6047 24.6279C33.5349 24.4884 33.3256 24.4186 33.186 24.4884C33.0465 24.5582 32.9767 24.6977 32.9767 24.907C33.1163 25.5349 33.6744 25.9535 34.3023 26.093C34.6512 26.1628 34.9302 26.1628 35.2791 26.0233C35.4884 25.9535 35.6977 25.814 35.8372 25.6744C35.907 25.5349 35.9767 25.3954 35.9767 25.2558C35.9767 25.1163 35.9767 24.9768 35.8372 24.907C35.6279 24.6977 35.4186 24.6279 35.3488 24.7675Z" fill="#372B7B"/>
<path d="M44.0698 24.6977C44 24.7675 43.8605 24.907 43.7907 24.9768C43.7209 25.0465 43.6512 25.1861 43.5116 25.2558L43.3721 25.3954L43.3023 25.4652L43.2326 25.5349H43.1628H43.093H43.0233C42.9535 25.5349 43.0233 25.5349 43.0233 25.5349H42.9535H42.8837H42.814H42.7442H42.6744L42.6047 25.4652V25.3954C42.5349 25.0465 41.9768 25.0465 41.907 25.3954C41.8372 25.5349 41.8372 25.7442 41.907 25.8838C41.9768 26.0931 42.1163 26.2326 42.2558 26.3721C42.4651 26.5814 42.814 26.6512 43.1628 26.6512C43.5814 26.6512 43.8605 26.4419 44.2093 26.2326C44.3488 26.0931 44.4884 25.9535 44.5582 25.814C44.6279 25.6745 44.6977 25.5349 44.7675 25.3954C44.8372 25.1861 44.8372 24.9768 44.6279 24.8372C44.4884 24.5582 44.2093 24.5582 44.0698 24.6977Z" fill="#372B7B"/>
<path d="M34.2326 20.9302C34.3721 20.8605 34.4419 20.8605 34.5814 20.8605C34.7209 20.7907 34.9302 20.7907 35.0698 20.6512C35.2093 20.4418 35.2791 20.093 35 20.0232C34.8605 19.9535 34.7907 19.9535 34.5814 19.9535L34.3721 20.0232C34.2326 20.093 34.093 20.093 34.0233 20.1628C33.7442 20.2325 33.4651 20.3721 33.186 20.5116C32.6977 20.7907 32.2093 21.0698 31.7907 21.4186C31.5116 21.6279 31.8605 22.186 32.2093 21.9767C32.6279 21.6977 33.0465 21.4186 33.5349 21.2093C33.7442 21.0698 33.9535 21 34.2326 20.9302Z" fill="#372B7B"/>
<path d="M45.2558 21.8372C44.6279 21.4884 43.8605 21.279 43.1628 21.3488C43.0232 21.3488 42.8837 21.4884 42.8837 21.6279C42.8837 21.7674 43.0232 21.907 43.1628 21.907C43.3023 21.907 43.4419 21.9767 43.5814 21.9767C43.6512 21.9767 43.7209 22.0465 43.7907 22.0465L43.8605 22.1163H43.9302C44.0698 22.186 44.2093 22.2558 44.3488 22.3256L44.5581 22.4651C44.4884 22.3953 44.5581 22.4651 44.5581 22.4651L44.6279 22.5349C44.8372 22.7442 45.1163 22.7442 45.3256 22.4651C45.5349 22.3256 45.4651 21.9767 45.2558 21.8372Z" fill="#372B7B"/>
<path d="M49.3023 32.8604C50.1395 32.5116 51.0465 32.3023 51.9535 32.093C51.8837 32.5116 51.8139 32.9302 51.9535 33.279C52.093 33.907 52.6512 34.0465 53.2093 33.907C54.7442 33.5581 56.2093 33.2093 57.7442 32.8604C58.2326 32.7209 58.0232 31.9535 57.5349 32.093C56.4186 32.3023 55.3023 32.5814 54.186 32.7907C53.907 32.8604 53.6279 32.9302 53.4186 32.9302C53.2791 32.9302 53.1395 33 53 33C52.9302 33 52.8605 33 52.7907 33C52.7209 32.8604 52.7907 32.4418 52.7907 32.3023C52.8605 32.0232 52.8605 31.7442 53 31.4651C53.0698 31.1163 52.7907 30.8372 52.4419 30.907C51.3256 31.1163 50.2093 31.4651 49.093 31.9535C48.6744 32.3023 48.8139 33.0697 49.3023 32.8604Z" fill="#372B7B"/>
<path d="M51.814 39.6279C51.814 40.1163 52.093 40.4651 52.5814 40.5349C52.8605 40.6047 53.0698 40.5349 53.3488 40.4652C53.6279 40.3954 53.9767 40.3954 54.2558 40.3256C54.814 40.2558 55.4419 40.1861 56 40.1163C56.6977 40.0465 56.6279 39 55.8605 39.1396C54.8837 39.2791 53.907 39.4186 52.8605 39.5582C52.7907 39.5582 52.6512 39.5582 52.7209 39.6279C52.6512 39.5582 52.7209 39.2791 52.7209 39.2093C52.7209 38.8605 52.7209 38.5117 52.5814 38.1628C52.5116 37.9535 52.2326 37.8838 52.0233 37.9535C51.6046 38.0233 51.186 38.1628 50.7674 38.2326C50.5581 38.3024 50.4186 38.3024 50.2093 38.3721H50.1395C50.0698 38.3024 50 38.3024 49.8605 38.3024C49.4419 38.3024 49.3023 38.7907 49.5116 39.0698C49.7907 39.4884 50.3488 39.2791 50.7674 39.2093C51.1163 39.1396 51.3954 39.0698 51.7442 39C51.7442 39.0698 51.7442 39.1396 51.7442 39.1396C51.8837 39.2791 51.814 39.4186 51.814 39.6279Z" fill="#372B7B"/>
<path d="M63.6744 75.4884C61.0233 70.7442 59.6279 65.4419 57.3256 60.5581C55.2326 56.2326 51.9535 51.3488 46.9302 50.1628C45.6047 49.814 44.2093 49.7442 42.8837 49.4651C42.1861 49.3256 41.5582 49.186 40.9302 48.8372C40.1628 48.4884 39.8837 48 39.4651 47.3023C39.3256 47.093 39.1163 47.1628 39.1163 47.3721L39.0465 47.3023L38.9768 47.2326H38.907L38.6279 47.0233L38.5582 46.9535L38.4884 46.814L38.4186 46.7442V46.6744C38.3488 46.5349 38.2791 46.4651 38.1395 46.5349C38 46.6047 37.9302 46.6744 38 46.814C38.1395 47.2326 38.4884 47.6512 38.8372 47.8605C38.7675 47.8605 38.7675 47.9302 38.6977 48C35.4884 55.186 26.8372 55.186 22.9302 48.8372V48.7674C22.8605 48.6977 22.8605 48.6279 22.7907 48.5581C22.7209 48.4186 22.4419 48.4884 22.5116 48.6977C22.5116 48.7674 22.5814 48.8372 22.5814 48.907C20.2093 50.3721 17.6279 51.5581 15.1163 52.814C12.6047 54 9.88373 55.186 7.65118 56.8605C5.69769 58.3256 4.30234 60.4186 3.32559 62.5814C2.20931 65.093 1.30234 67.8837 0.953501 70.6744C0.883733 71.1628 1.65118 71.2326 1.79071 70.814C2.62792 68.1628 3.04652 65.3721 4.23257 62.8605C5.27908 60.6279 6.81397 58.4651 8.90699 57.1395C13.3721 54.2791 18.3256 52.3954 22.6512 49.2558C25.8605 56.7209 36.5349 55.9535 39.3256 48.4186C39.3256 48.3488 39.3256 48.2791 39.3256 48.2093C39.7442 48.907 40.2326 49.3953 41.0698 49.7442C42.2558 50.2326 43.5116 50.3721 44.7675 50.5814C45.8837 50.7907 47 50.9302 48.0465 51.4186C49.3023 51.9767 50.4186 52.7442 51.4651 53.6512C55.6512 57.3488 57.6047 62.9302 59.5581 68.0233C60.6047 70.7442 61.6512 73.4651 63.1163 76.0465C63.2558 76.186 63.8837 75.8372 63.6744 75.4884Z" fill="#372B7B"/>
<path d="M23.2093 28.3256C23.4884 28.4652 23.7675 28.2559 23.8372 28.0466C23.907 27.907 23.907 27.8373 23.907 27.6977C23.907 27.628 23.907 27.4884 23.907 27.4187C23.907 27.2094 23.907 27.0001 23.8372 26.7907C23.7675 26.4419 23.5582 26.0931 23.2791 25.8838C23 25.6745 22.6512 25.6047 22.3721 25.6745C22.093 25.7442 21.8837 25.9535 21.814 26.2326C21.7442 26.5117 21.7442 26.8605 22.0233 27.0001C22.1628 27.1396 22.3721 26.9303 22.2326 26.7907C22.093 26.6512 22.093 26.5117 22.1628 26.3721C22.1628 26.3024 22.2326 26.2326 22.3023 26.1628C22.3721 26.0931 22.4419 26.0931 22.5116 26.0931C22.7209 26.0233 22.8605 26.1628 23 26.2326L23.0698 26.3024L23.1395 26.4419V26.5117V26.5814V26.6512V26.721V26.8605V26.9303V27.0001C23.1395 27.0698 23.1395 27.1396 23.0698 27.2094V27.2791V27.3489C23 27.4187 22.9302 27.5582 22.9302 27.628C22.8605 27.907 22.9302 28.2559 23.2093 28.3256Z" fill="#372B7B"/>
<path d="M50.4186 71.2326C49.9302 67.5349 49.5814 63.8372 48.9535 60.2093C48.9535 60.1395 48.8139 60.1395 48.8139 60.2093C48.8139 63.907 49.3721 67.6046 49.7907 71.3023C50 73.0465 50.2093 74.7907 50.4884 76.4651C50.7674 78.2791 50.8372 80.3721 51.4651 82.0465C51.6046 82.3256 52.0233 82.3256 52.093 81.9767C52.1628 80.3023 51.6046 78.4884 51.3256 76.8139C50.907 75 50.6279 73.1163 50.4186 71.2326Z" fill="#372B7B"/>
<path d="M13.3721 67.7442C13.093 68.7209 13.2326 69.8372 13.1628 70.814C13.093 71.8605 13.0233 72.907 12.9535 73.9535C12.814 76.1163 12.6047 78.3488 12.2558 80.5116C12.1861 81.0698 13.0233 81.2791 13.093 80.7209C13.3721 78.5581 13.5814 76.3954 13.7209 74.2326C13.7907 73.1163 13.8605 72.0698 13.8605 70.9535C13.8605 69.907 14 68.7209 13.7209 67.7442C13.6512 67.5349 13.3721 67.5349 13.3721 67.7442Z" fill="#372B7B"/>
<path d="M40.4419 33.2093C39.9535 33.2093 39.4651 33.2093 38.9767 33.2093C38 33.2093 37.0233 33.2791 36.0465 33.3488C35.5581 33.4186 35.5581 34.1163 36.0465 34.1163C37.0233 34.1163 38 34.1163 38.907 34.1163C39.3954 34.1163 39.814 34.186 40.3023 34.186C40.7907 34.186 41.3488 34.3256 41.7674 34.186C42.1163 34.1163 42.186 33.5581 41.8372 33.4186C41.4186 33.2093 40.9302 33.2791 40.4419 33.2093Z" fill="#372B7B"/>
<path d="M41 37.1163C39.0465 37.6046 36.9535 37.6744 35 37.186C34.6512 37.1163 34.4419 37.6744 34.8605 37.7442C36.9535 38.4418 39.1163 38.5116 41.2791 37.9535C41.8372 37.8837 41.5581 36.9767 41 37.1163Z" fill="#372B7B"/>
<path d="M29.5581 7.25587C30.9535 6.20936 32.5581 5.30238 34.2326 4.74424C36.0465 4.1861 37.6512 4.3954 39.4651 4.1861C40.3721 4.11633 40.5814 2.93029 39.6744 2.58145C35.9767 1.32564 31.2326 3.62796 28.8605 6.34889C28.4419 6.7675 29 7.6047 29.5581 7.25587Z" fill="white"/>
<path d="M43.3721 5.16281C44.9768 5.16281 44.9768 2.72095 43.3721 2.72095C41.7675 2.72095 41.7675 5.16281 43.3721 5.16281Z" fill="white"/>
</svg>
